<svg xmlns="http://www.w3.org/2000/svg" width="36" height="36" viewBox="0 0 36 36">
    <g fill="none" fill-rule="evenodd">
        <g transform="translate(15)">
            <path fill="#EF403D" fill-rule="nonzero" d="M18.667 0H2.333C1.048 0 0 1.066 0 2.375v9.5c0 1.309 1.048 2.375 2.333 2.375h2.334v3.563c0 .51.322.964.798 1.125.121.043.245.062.368.062.36 0 .71-.171.934-.475l3.15-4.275h8.75c1.309 0 2.333-1.043 2.333-2.375v-9.5C21 1.043 19.976 0 18.667 0z"/>
            <circle cx="5.5" cy="7.5" r="1.5" fill="#FFF"/>
            <circle cx="10.5" cy="7.5" r="1.5" fill="#FFF"/>
            <circle cx="15.5" cy="7.5" r="1.5" fill="#FFF"/>
        </g>
        <path fill="#EF403D" fill-rule="nonzero" d="M23.143 29.143c-2.49 0-4.86-.542-7.046-1.61a.841.841 0 0 0-.656-.04.865.865 0 0 0-.492.438L13.6 30.72a21.56 21.56 0 0 1-8.318-8.318l2.788-1.35a.859.859 0 0 0 .396-1.15c-1.068-2.185-1.61-4.556-1.61-7.045A.857.857 0 0 0 6 12H.857a.857.857 0 0 0-.857.857C0 25.618 10.382 36 23.143 36a.857.857 0 0 0 .857-.857V30a.857.857 0 0 0-.857-.857z"/>
    </g>
</svg>
